<?xml version="1.0" encoding="utf-8"?>
<!-- Generator: Adobe Illustrator 23.0.3, SVG Export Plug-In . SVG Version: 6.00 Build 0)  -->
<svg version="1.1" xmlns="http://www.w3.org/2000/svg" xmlns:xlink="http://www.w3.org/1999/xlink" x="0px" y="0px"
	 viewBox="0 0 311.8 311.8" style="enable-background:new 0 0 311.8 311.8;" xml:space="preserve">
<style type="text/css">
	.st0{fill:#BFAC9B;}
	.st1{fill:#D9CEC1;}
	.st2{fill:none;stroke:#595954;stroke-miterlimit:10;}
	.st3{fill:#595954;stroke:#000000;stroke-width:0.25;stroke-miterlimit:10;}
</style>
<g id="Calque_2">
	<path class="st0" d="M255,267c-26.2,22.8-60.5,36.6-98,36.6C74.4,303.6,7.5,236.6,7.5,154c0-44.5,19.5-84.5,50.4-111.9
		c0.6,42.4,6.7,76.8,16.4,104.9c1.1,3.3,2.3,6.4,3.5,9.5c1.2,3,2.5,6,3.8,8.9c40,89,120.1,101.4,155.8,102.2c3.9,0.1,7.2,0.1,10,0
		c0.6,0,1.1,0,1.7-0.1c0.4,0,0.8,0,1.3-0.1c1-0.1,1.9-0.1,2.6-0.2c0.3,0,0.7,0,0.9-0.1C254.3,267.1,254.7,267,255,267z"/>
	<path class="st1" d="M306.5,154c0,45-19.9,85.4-51.3,112.8L255,267c-0.3,0-0.7,0.1-1.2,0.1c-0.3,0-0.6,0.1-0.9,0.1
		c-0.7,0.1-1.6,0.1-2.6,0.2c-0.4,0-0.8,0-1.3,0.1c-0.5,0-1.1,0-1.7,0.1c-2.7,0.1-6.1,0.1-10,0c-35.8-0.8-115.8-13.2-155.8-102.2
		c-1.3-2.9-2.6-5.8-3.8-8.9c-1.2-3.1-2.4-6.3-3.5-9.5c-0.7-2-1.4-4.1-2-6.2c-8.5-26.9-13.8-59.4-14.4-98.7c0,0,0,0,0,0
		C84.3,18.7,119,4.5,157,4.5C239.6,4.5,306.5,71.4,306.5,154z"/>
</g>
<g id="Calque_6">
	<path class="st2" d="M306.9,154.6c0,45-19.9,85.4-51.3,112.8l-0.3,0.2c-26.2,22.8-60.5,36.6-98,36.6c-82.6,0-149.5-67-149.5-149.5
		C7.8,110,27.3,70,58.2,42.6c0,0,0,0,0,0C84.6,19.2,119.3,5,157.4,5C239.9,5,306.9,72,306.9,154.6z"/>
</g>
<g id="Calque_3">
	<circle class="st0" cx="113.4" cy="74.3" r="30.3"/>
	<circle class="st1" cx="72.4" cy="137.3" r="11.1"/>
	<circle class="st0" cx="72.4" cy="137.4" r="10"/>
	<circle class="st0" cx="198.2" cy="158.7" r="16.7"/>
	<circle class="st0" cx="218.3" cy="94.4" r="13.6"/>
	<circle class="st0" cx="140" cy="23.2" r="7.8"/>
	<circle class="st0" cx="171.8" cy="101.7" r="6.3"/>
	<circle class="st0" cx="289.8" cy="168.6" r="3.2"/>
	<circle class="st0" cx="127.9" cy="183.6" r="5.4"/>
	<circle class="st1" cx="196.2" cy="255.4" r="15.7"/>
	<circle class="st0" cx="196.2" cy="255.2" r="15.1"/>
</g>
<g id="Calque_5">
	<g>
		
			<image style="overflow:visible;opacity:0.86;" width="383" height="1136" xlink:href="4F8AA9E8.png"  transform="matrix(0.24 0 0 0.24 11.3123 32.5539)">
		</image>
		<g>
			<g>
				<path class="st3" d="M67.2,98.4H35v3.6c0,2.1-1.6,3.1-4.7,3.1c-2.2,0-3.4-0.9-3.4-2.6c0.3-10.6,0.5-23.4,0.5-38.6
					c0-9.8-0.1-18.2-0.4-25.3c3,1.2,6.1,2.7,9.1,4.5h30.2c2.5-2.6,4-4,4.5-4c0.6,0,2.1,1,4.6,3.1c1.2,1.1,1.9,1.9,1.9,2.4
					c0,0.6-0.8,1.5-2.3,2.5V56c0,17.8,0.2,32.8,0.5,45.2c0,2.1-1.6,3.2-4.8,3.2c-2.2,0-3.4-0.9-3.4-2.6V98.4z M67.2,69.1V44.9H35
					v24.3H67.2z M67.2,96.6V70.9H35v25.7H67.2z"/>
				<path class="st3" d="M46.9,157.2c-4.1,7-9.2,13.2-15.4,18.8c-5.3,4.8-10.8,8.4-16.5,11c0,0-0.1,0-0.1,0c-0.4,0-0.5-0.2-0.5-0.6
					c0-0.1,0-0.2,0.1-0.2c6.3-4.8,12.1-10.8,17.5-18.2c4.5-6.3,8.1-12.7,10.9-19.4H24.8c-1.8,0-4,0.2-6.7,0.5l-0.8-2.9
					c2.6,0.4,5.1,0.6,7.4,0.6h21.7v-6.6c0-4.6-0.2-8.2-0.5-10.9c4.2,0.3,7,0.7,8.4,1.1c1.2,0.3,1.9,0.7,1.9,1.3
					c0,0.7-0.8,1.4-2.4,2.2v12.9h18.3c2.8-3.6,4.5-5.4,5.1-5.4c0.5,0,2.4,1.2,5.6,3.7c1.6,1.3,2.4,2.2,2.4,2.7c0,0.5-0.3,0.8-1,0.8
					H54.5c2.6,6,6.6,11.7,12.1,17c5.5,5.2,12.8,9.3,21.9,12.2c0.2,0.1,0.3,0.2,0.3,0.4c0,0.2-0.1,0.3-0.3,0.4
					c-1.6,0.5-2.8,1.2-3.6,2.2c-0.7,0.8-1.4,2.1-2.1,3.8c-0.4,1-0.8,1.5-1.4,1.5c-0.7,0-1.9-0.5-3.5-1.6
					c-6.1-4.1-11.2-9.1-15.2-14.9c-3.6-5.2-6.7-11.4-9.2-18.7c0,1.6,0.1,4.8,0.2,9.6c0.2,10.9,0.4,17.9,0.5,21h4
					c2.5-3.3,4.1-4.9,4.8-4.9c0.5,0,2.1,1.1,4.8,3.4c1.3,1.2,2,2,2,2.5c0,0.5-0.3,0.8-1,0.8H54c0.2,7.3,0.2,12.1,0.2,14.7
					c0,2.1-1.6,3.2-4.8,3.2c-2.3,0-3.4-0.9-3.4-2.7c0-0.6,0-2.6,0.1-5.9c0.1-4.4,0.2-7.6,0.2-9.3h-8.9c-1.5,0-3.4,0.2-5.8,0.5
					l-0.8-2.9c2.2,0.4,4.3,0.6,6.2,0.6h9.4C46.7,167.9,46.9,159.9,46.9,157.2z"/>
				<path class="st3" d="M66.4,265.8H38.3l-0.7,3.7c-2.3,10.4-7.7,18.4-16.3,24.1c-0.1,0.1-0.1,0.1-0.2,0.1c-0.4,0-0.5-0.2-0.5-0.5
					c0-0.1,0-0.1,0-0.2c2.9-3.5,5.1-7.1,6.6-10.6c1.4-3.3,2.5-7.1,3.3-11.4c1-6.1,1.6-15.1,1.6-27.1c0-8.3-0.2-14.9-0.5-19.8
					c3.2,1.3,6.2,2.8,8.8,4.5h25.4c2-2.4,3.3-3.7,3.9-3.7c0.6,0,2.1,0.9,4.6,2.8c1.2,1,1.9,1.7,1.9,2.2c0,0.5-0.7,1.3-2.1,2.2v8.8
					l0.2,44.4c0,2-0.3,3.4-0.8,4.4c-0.4,0.9-1.2,1.6-2.3,2.2c-1.7,1-3.7,1.6-6.1,1.6c-0.9,0-1.4-0.1-1.7-0.4
					c-0.2-0.3-0.4-0.8-0.5-1.5c-0.4-2.7-3.4-4.7-8.9-5.8c-0.2-0.1-0.3-0.2-0.3-0.6c0-0.3,0.1-0.5,0.3-0.5c4,0.2,7.7,0.3,11,0.3
					c0.6,0,1-0.1,1.2-0.3c0.2-0.2,0.2-0.5,0.2-1V265.8z M66.4,264v-16.3h-27c-0.1,6.8-0.4,12.2-0.9,16.3H66.4z M66.4,245.9v-15.5
					H39.6v3c0,5.6,0,9.7-0.1,12.5H66.4z"/>
			</g>
		</g>
	</g>
</g>
</svg>
